<svg width="24" height="24" viewBox="0 0 24 24" fill="none" xmlns="http://www.w3.org/2000/svg">
<path d="M12 15.3604L16.1143 4.6084L23.3145 -2.99662e-08L24 0.959961L21.0859 4.22363C19.2002 6.33563 18.1712 8.06416 16.7998 10.3682C15.4284 12.6722 14.0569 16.7041 13.0283 20.5439C12.7264 21.6713 12.5076 22.8676 12.3516 24L11.6484 24C11.4924 22.8676 11.2736 21.6713 10.9717 20.5439C9.94314 16.7041 8.57158 12.6722 7.20019 10.3682C5.82877 8.06416 4.79978 6.33563 2.91406 4.22363L-4.19612e-08 0.95996L0.685547 -1.01911e-06L7.88574 4.6084L12 15.3604Z" fill="#DA3C3F"/>
</svg>
